<mxfile host="app.diagrams.net" modified="2021-02-01T03:44:28.652Z" agent="5.0 (Macintosh; Intel Mac OS X 10_14_6) AppleWebKit/537.36 (KHTML, like Gecko) Chrome/88.0.4324.96 Safari/537.36" etag="8dxftEU6d0BSTcpKUbYF" version="14.2.7" type="github">
  <diagram id="r_hhS5hyFo-DhM1qwHpe" name="Page-1">
    <mxGraphModel dx="746" dy="442" grid="1" gridSize="10" guides="1" tooltips="1" connect="1" arrows="1" fold="1" page="1" pageScale="1" pageWidth="1100" pageHeight="850" math="0" shadow="0">
      <root>
        <mxCell id="0" />
        <mxCell id="1" parent="0" />
      </root>
    </mxGraphModel>
  </diagram>
</mxfile>
